<svg xmlns="http://www.w3.org/2000/svg" viewBox="0 0 996 816" width="996" height="816" role="img" aria-label="Ticket triage — calibration (spinf-12b)"><style>
    .bg{fill:#fcfcfb}.t1{fill:#0b0b0b}.t2{fill:#52514e}.grid{stroke:#e4e3df}.axis{stroke:#b9b8b2}.diag{stroke:#9a9993}
    .s0{stroke:#2a78d6;fill:#2a78d6}.s1{stroke:#eb6834;fill:#eb6834}.ring{stroke:#fcfcfb}
    @media (prefers-color-scheme: dark){.bg{fill:#1a1a19}.t1{fill:#ffffff}.t2{fill:#c3c2b7}.grid{stroke:#2e2e2c}
    .axis{stroke:#4a4a47}.diag{stroke:#6d6c67}.s0{stroke:#3987e5;fill:#3987e5}.s1{stroke:#d95926;fill:#d95926}.ring{stroke:#1a1a19}}
    text{font-family:system-ui,-apple-system,Segoe UI,Roboto,sans-serif}</style><rect class="bg" width="996" height="816"/>
<text class="t1" x="24" y="28" font-size="16" font-weight="600">Ticket triage — calibration (spinf-12b)</text>
<circle class="s0 ring" cx="30" cy="50" r="5" stroke-width="2"/><text class="t2" x="40" y="54" font-size="12">raw</text>
<circle class="s1 ring" cx="160" cy="50" r="5" stroke-width="2"/><text class="t2" x="170" y="54" font-size="12">floor-calibrated</text>
<line class="diag" x1="284" y1="50" x2="302" y2="50" stroke-dasharray="4 3" stroke-width="1.5"/><text class="t2" x="308" y="54" font-size="12">perfect calibration</text>
<text class="t1" x="24" y="84" font-size="13" font-weight="600">urgent?</text><text class="t2" x="24" y="100" font-size="11">zero-shot · p(yes) · n=130</text>
<line class="grid" x1="68" y1="340" x2="316" y2="340" stroke-width="1"/><text class="t2" x="62" y="344" font-size="10" text-anchor="end">0</text><text class="t2" x="68" y="354" font-size="10" text-anchor="middle">0</text>
<line class="grid" x1="68" y1="282.5" x2="316" y2="282.5" stroke-width="1"/><text class="t2" x="62" y="286.5" font-size="10" text-anchor="end">0.25</text><text class="t2" x="130.0" y="354" font-size="10" text-anchor="middle">0.25</text>
<line class="grid" x1="68" y1="225.0" x2="316" y2="225.0" stroke-width="1"/><text class="t2" x="62" y="229.0" font-size="10" text-anchor="end">0.5</text><text class="t2" x="192.0" y="354" font-size="10" text-anchor="middle">0.5</text>
<line class="grid" x1="68" y1="167.5" x2="316" y2="167.5" stroke-width="1"/><text class="t2" x="62" y="171.5" font-size="10" text-anchor="end">0.75</text><text class="t2" x="254.0" y="354" font-size="10" text-anchor="middle">0.75</text>
<line class="grid" x1="68" y1="110" x2="316" y2="110" stroke-width="1"/><text class="t2" x="62" y="114" font-size="10" text-anchor="end">1</text><text class="t2" x="316" y="354" font-size="10" text-anchor="middle">1</text>
<line class="axis" x1="68" y1="340" x2="316" y2="340" stroke-width="1"/><line class="diag" x1="68" y1="340" x2="316" y2="110" stroke-dasharray="4 3" stroke-width="1.5"/><text class="t2" x="192.0" y="370" font-size="10" text-anchor="middle">predicted probability</text><text class="t2" x="32" y="225.0" font-size="10" text-anchor="middle" transform="rotate(-90 32 225.0)">observed frequency</text>
<path class="s0" d="M87.4,340.0 L104.7,340.0 L129.7,340.0 L154.8,340.0 L179.7,314.4 L203.5,196.2 L230.5,258.8 L250.8,151.8 L277.2,110.0 L299.9,110.0" style="fill:none" stroke-width="2" stroke-linejoin="round"/>
<circle class="s0 ring" cx="87.4" cy="340.0" r="4.9" stroke-width="2"><title>raw: predicted 0.08, observed 0.00, 3 items</title></circle>
<circle class="s0 ring" cx="104.7" cy="340.0" r="5.2" stroke-width="2"><title>raw: predicted 0.15, observed 0.00, 6 items</title></circle>
<circle class="s0 ring" cx="129.7" cy="340.0" r="6.1" stroke-width="2"><title>raw: predicted 0.25, observed 0.00, 18 items</title></circle>
<circle class="s0 ring" cx="154.8" cy="340.0" r="6.3" stroke-width="2"><title>raw: predicted 0.35, observed 0.00, 22 items</title></circle>
<circle class="s0 ring" cx="179.7" cy="314.4" r="6.1" stroke-width="2"><title>raw: predicted 0.45, observed 0.11, 18 items</title></circle>
<circle class="s0 ring" cx="203.5" cy="196.2" r="5.4" stroke-width="2"><title>raw: predicted 0.55, observed 0.62, 8 items</title></circle>
<circle class="s0 ring" cx="230.5" cy="258.8" r="6.1" stroke-width="2"><title>raw: predicted 0.66, observed 0.35, 17 items</title></circle>
<circle class="s0 ring" cx="250.8" cy="151.8" r="6.3" stroke-width="2"><title>raw: predicted 0.74, observed 0.82, 22 items</title></circle>
<circle class="s0 ring" cx="277.2" cy="110.0" r="5.5" stroke-width="2"><title>raw: predicted 0.84, observed 1.00, 9 items</title></circle>
<circle class="s0 ring" cx="299.9" cy="110.0" r="5.3" stroke-width="2"><title>raw: predicted 0.94, observed 1.00, 7 items</title></circle>
<path class="s1" d="M84.2,340.0 L107.2,340.0 L127.2,340.0 L151.5,285.2 L177.9,263.3 L203.6,208.6 L226.6,167.5 L254.5,110.0 L282.8,110.0 L301.2,110.0" style="fill:none" stroke-width="2" stroke-linejoin="round"/>
<circle class="s1 ring" cx="84.2" cy="340.0" r="5.2" stroke-width="2"><title>floor-calibrated: predicted 0.07, observed 0.00, 6 items</title></circle>
<circle class="s1 ring" cx="107.2" cy="340.0" r="6.3" stroke-width="2"><title>floor-calibrated: predicted 0.16, observed 0.00, 22 items</title></circle>
<circle class="s1 ring" cx="127.2" cy="340.0" r="6.3" stroke-width="2"><title>floor-calibrated: predicted 0.24, observed 0.00, 22 items</title></circle>
<circle class="s1 ring" cx="151.5" cy="285.2" r="6.3" stroke-width="2"><title>floor-calibrated: predicted 0.34, observed 0.24, 21 items</title></circle>
<circle class="s1 ring" cx="177.9" cy="263.3" r="5.2" stroke-width="2"><title>floor-calibrated: predicted 0.44, observed 0.33, 6 items</title></circle>
<circle class="s1 ring" cx="203.6" cy="208.6" r="6.3" stroke-width="2"><title>floor-calibrated: predicted 0.55, observed 0.57, 21 items</title></circle>
<circle class="s1 ring" cx="226.6" cy="167.5" r="6.0" stroke-width="2"><title>floor-calibrated: predicted 0.64, observed 0.75, 16 items</title></circle>
<circle class="s1 ring" cx="254.5" cy="110.0" r="5.4" stroke-width="2"><title>floor-calibrated: predicted 0.75, observed 1.00, 8 items</title></circle>
<circle class="s1 ring" cx="282.8" cy="110.0" r="5.2" stroke-width="2"><title>floor-calibrated: predicted 0.87, observed 1.00, 6 items</title></circle>
<circle class="s1 ring" cx="301.2" cy="110.0" r="4.7" stroke-width="2"><title>floor-calibrated: predicted 0.94, observed 1.00, 2 items</title></circle>
<text class="t1" x="348" y="84" font-size="13" font-weight="600">needs a human?</text><text class="t2" x="348" y="100" font-size="11">zero-shot · p(yes) · n=130</text>
<line class="grid" x1="392" y1="340" x2="640" y2="340" stroke-width="1"/><text class="t2" x="386" y="344" font-size="10" text-anchor="end">0</text><text class="t2" x="392" y="354" font-size="10" text-anchor="middle">0</text>
<line class="grid" x1="392" y1="282.5" x2="640" y2="282.5" stroke-width="1"/><text class="t2" x="386" y="286.5" font-size="10" text-anchor="end">0.25</text><text class="t2" x="454.0" y="354" font-size="10" text-anchor="middle">0.25</text>
<line class="grid" x1="392" y1="225.0" x2="640" y2="225.0" stroke-width="1"/><text class="t2" x="386" y="229.0" font-size="10" text-anchor="end">0.5</text><text class="t2" x="516.0" y="354" font-size="10" text-anchor="middle">0.5</text>
<line class="grid" x1="392" y1="167.5" x2="640" y2="167.5" stroke-width="1"/><text class="t2" x="386" y="171.5" font-size="10" text-anchor="end">0.75</text><text class="t2" x="578.0" y="354" font-size="10" text-anchor="middle">0.75</text>
<line class="grid" x1="392" y1="110" x2="640" y2="110" stroke-width="1"/><text class="t2" x="386" y="114" font-size="10" text-anchor="end">1</text><text class="t2" x="640" y="354" font-size="10" text-anchor="middle">1</text>
<line class="axis" x1="392" y1="340" x2="640" y2="340" stroke-width="1"/><line class="diag" x1="392" y1="340" x2="640" y2="110" stroke-dasharray="4 3" stroke-width="1.5"/><text class="t2" x="516.0" y="370" font-size="10" text-anchor="middle">predicted probability</text><text class="t2" x="356" y="225.0" font-size="10" text-anchor="middle" transform="rotate(-90 356 225.0)">observed frequency</text>
<path class="s0" d="M438.6,110.0 L457.1,298.2 L479.1,322.3 L503.7,301.7 L530.0,172.7 L553.2,119.2 L578.4,110.0 L595.1,110.0" style="fill:none" stroke-width="2" stroke-linejoin="round"/>
<circle class="s0 ring" cx="438.6" cy="110.0" r="4.5" stroke-width="2"><title>raw: predicted 0.19, observed 1.00, 1 items</title></circle>
<circle class="s0 ring" cx="457.1" cy="298.2" r="5.7" stroke-width="2"><title>raw: predicted 0.26, observed 0.18, 11 items</title></circle>
<circle class="s0 ring" cx="479.1" cy="322.3" r="6.5" stroke-width="2"><title>raw: predicted 0.35, observed 0.08, 26 items</title></circle>
<circle class="s0 ring" cx="503.7" cy="301.7" r="6.7" stroke-width="2"><title>raw: predicted 0.45, observed 0.17, 30 items</title></circle>
<circle class="s0 ring" cx="530.0" cy="172.7" r="6.3" stroke-width="2"><title>raw: predicted 0.56, observed 0.73, 22 items</title></circle>
<circle class="s0 ring" cx="553.2" cy="119.2" r="6.5" stroke-width="2"><title>raw: predicted 0.65, observed 0.96, 25 items</title></circle>
<circle class="s0 ring" cx="578.4" cy="110.0" r="5.7" stroke-width="2"><title>raw: predicted 0.75, observed 1.00, 12 items</title></circle>
<circle class="s0 ring" cx="595.1" cy="110.0" r="4.9" stroke-width="2"><title>raw: predicted 0.82, observed 1.00, 3 items</title></circle>
<path class="s1" d="M439.0,186.7 L455.8,301.7 L480.1,331.8 L503.2,263.3 L527.9,154.2 L551.6,122.1 L577.0,110.0" style="fill:none" stroke-width="2" stroke-linejoin="round"/>
<circle class="s1 ring" cx="439.0" cy="186.7" r="4.9" stroke-width="2"><title>floor-calibrated: predicted 0.19, observed 0.67, 3 items</title></circle>
<circle class="s1 ring" cx="455.8" cy="301.7" r="6.1" stroke-width="2"><title>floor-calibrated: predicted 0.26, observed 0.17, 18 items</title></circle>
<circle class="s1 ring" cx="480.1" cy="331.8" r="6.6" stroke-width="2"><title>floor-calibrated: predicted 0.36, observed 0.04, 28 items</title></circle>
<circle class="s1 ring" cx="503.2" cy="263.3" r="6.4" stroke-width="2"><title>floor-calibrated: predicted 0.45, observed 0.33, 24 items</title></circle>
<circle class="s1 ring" cx="527.9" cy="154.2" r="6.5" stroke-width="2"><title>floor-calibrated: predicted 0.55, observed 0.81, 26 items</title></circle>
<circle class="s1 ring" cx="551.6" cy="122.1" r="6.2" stroke-width="2"><title>floor-calibrated: predicted 0.64, observed 0.95, 19 items</title></circle>
<circle class="s1 ring" cx="577.0" cy="110.0" r="5.7" stroke-width="2"><title>floor-calibrated: predicted 0.75, observed 1.00, 12 items</title></circle>
<text class="t1" x="672" y="84" font-size="13" font-weight="600">bot can resolve?</text><text class="t2" x="672" y="100" font-size="11">zero-shot · p(yes) · n=130</text>
<line class="grid" x1="716" y1="340" x2="964" y2="340" stroke-width="1"/><text class="t2" x="710" y="344" font-size="10" text-anchor="end">0</text><text class="t2" x="716" y="354" font-size="10" text-anchor="middle">0</text>
<line class="grid" x1="716" y1="282.5" x2="964" y2="282.5" stroke-width="1"/><text class="t2" x="710" y="286.5" font-size="10" text-anchor="end">0.25</text><text class="t2" x="778.0" y="354" font-size="10" text-anchor="middle">0.25</text>
<line class="grid" x1="716" y1="225.0" x2="964" y2="225.0" stroke-width="1"/><text class="t2" x="710" y="229.0" font-size="10" text-anchor="end">0.5</text><text class="t2" x="840.0" y="354" font-size="10" text-anchor="middle">0.5</text>
<line class="grid" x1="716" y1="167.5" x2="964" y2="167.5" stroke-width="1"/><text class="t2" x="710" y="171.5" font-size="10" text-anchor="end">0.75</text><text class="t2" x="902.0" y="354" font-size="10" text-anchor="middle">0.75</text>
<line class="grid" x1="716" y1="110" x2="964" y2="110" stroke-width="1"/><text class="t2" x="710" y="114" font-size="10" text-anchor="end">1</text><text class="t2" x="964" y="354" font-size="10" text-anchor="middle">1</text>
<line class="axis" x1="716" y1="340" x2="964" y2="340" stroke-width="1"/><line class="diag" x1="716" y1="340" x2="964" y2="110" stroke-dasharray="4 3" stroke-width="1.5"/><text class="t2" x="840.0" y="370" font-size="10" text-anchor="middle">predicted probability</text><text class="t2" x="680" y="225.0" font-size="10" text-anchor="middle" transform="rotate(-90 680 225.0)">observed frequency</text>
<path class="s0" d="M788.8,225.0 L804.1,340.0 L829.4,279.5 L850.5,247.0 L877.7,139.7 L892.2,110.0" style="fill:none" stroke-width="2" stroke-linejoin="round"/>
<circle class="s0 ring" cx="788.8" cy="225.0" r="4.7" stroke-width="2"><title>raw: predicted 0.29, observed 0.50, 2 items</title></circle>
<circle class="s0 ring" cx="804.1" cy="340.0" r="5.0" stroke-width="2"><title>raw: predicted 0.36, observed 0.00, 4 items</title></circle>
<circle class="s0 ring" cx="829.4" cy="279.5" r="7.1" stroke-width="2"><title>raw: predicted 0.46, observed 0.26, 38 items</title></circle>
<circle class="s0 ring" cx="850.5" cy="247.0" r="7.4" stroke-width="2"><title>raw: predicted 0.54, observed 0.40, 47 items</title></circle>
<circle class="s0 ring" cx="877.7" cy="139.7" r="6.8" stroke-width="2"><title>raw: predicted 0.65, observed 0.87, 31 items</title></circle>
<circle class="s0 ring" cx="892.2" cy="110.0" r="5.4" stroke-width="2"><title>raw: predicted 0.71, observed 1.00, 8 items</title></circle>
<path class="s1" d="M782.8,307.1 L804.8,300.3 L825.0,242.7 L854.2,151.1 L872.1,110.0" style="fill:none" stroke-width="2" stroke-linejoin="round"/>
<circle class="s1 ring" cx="782.8" cy="307.1" r="5.3" stroke-width="2"><title>floor-calibrated: predicted 0.27, observed 0.14, 7 items</title></circle>
<circle class="s1 ring" cx="804.8" cy="300.3" r="6.7" stroke-width="2"><title>floor-calibrated: predicted 0.36, observed 0.17, 29 items</title></circle>
<circle class="s1 ring" cx="825.0" cy="242.7" r="7.6" stroke-width="2"><title>floor-calibrated: predicted 0.44, observed 0.42, 52 items</title></circle>
<circle class="s1 ring" cx="854.2" cy="151.1" r="6.6" stroke-width="2"><title>floor-calibrated: predicted 0.56, observed 0.82, 28 items</title></circle>
<circle class="s1 ring" cx="872.1" cy="110.0" r="5.9" stroke-width="2"><title>floor-calibrated: predicted 0.63, observed 1.00, 14 items</title></circle>
<text class="t1" x="24" y="454" font-size="13" font-weight="600">topic (5)</text><text class="t2" x="24" y="470" font-size="11">zero-shot · top-answer confidence · n=130</text>
<line class="grid" x1="68" y1="710" x2="316" y2="710" stroke-width="1"/><text class="t2" x="62" y="714" font-size="10" text-anchor="end">0</text><text class="t2" x="68" y="724" font-size="10" text-anchor="middle">0</text>
<line class="grid" x1="68" y1="652.5" x2="316" y2="652.5" stroke-width="1"/><text class="t2" x="62" y="656.5" font-size="10" text-anchor="end">0.25</text><text class="t2" x="130.0" y="724" font-size="10" text-anchor="middle">0.25</text>
<line class="grid" x1="68" y1="595.0" x2="316" y2="595.0" stroke-width="1"/><text class="t2" x="62" y="599.0" font-size="10" text-anchor="end">0.5</text><text class="t2" x="192.0" y="724" font-size="10" text-anchor="middle">0.5</text>
<line class="grid" x1="68" y1="537.5" x2="316" y2="537.5" stroke-width="1"/><text class="t2" x="62" y="541.5" font-size="10" text-anchor="end">0.75</text><text class="t2" x="254.0" y="724" font-size="10" text-anchor="middle">0.75</text>
<line class="grid" x1="68" y1="480" x2="316" y2="480" stroke-width="1"/><text class="t2" x="62" y="484" font-size="10" text-anchor="end">1</text><text class="t2" x="316" y="724" font-size="10" text-anchor="middle">1</text>
<line class="axis" x1="68" y1="710" x2="316" y2="710" stroke-width="1"/><line class="diag" x1="68" y1="710" x2="316" y2="480" stroke-dasharray="4 3" stroke-width="1.5"/><text class="t2" x="192.0" y="740" font-size="10" text-anchor="middle">predicted probability</text><text class="t2" x="32" y="595.0" font-size="10" text-anchor="middle" transform="rotate(-90 32 595.0)">observed frequency</text>
<path class="s0" d="M163.3,710.0 L181.1,556.7 L206.8,582.2 L231.9,595.0 L254.5,549.0 L277.6,495.3 L301.7,480.0" style="fill:none" stroke-width="2" stroke-linejoin="round"/>
<circle class="s0 ring" cx="163.3" cy="710.0" r="5.0" stroke-width="2"><title>raw: predicted 0.38, observed 0.00, 4 items</title></circle>
<circle class="s0 ring" cx="181.1" cy="556.7" r="5.7" stroke-width="2"><title>raw: predicted 0.46, observed 0.67, 12 items</title></circle>
<circle class="s0 ring" cx="206.8" cy="582.2" r="6.1" stroke-width="2"><title>raw: predicted 0.56, observed 0.56, 18 items</title></circle>
<circle class="s0 ring" cx="231.9" cy="595.0" r="6.1" stroke-width="2"><title>raw: predicted 0.66, observed 0.50, 18 items</title></circle>
<circle class="s0 ring" cx="254.5" cy="549.0" r="6.2" stroke-width="2"><title>raw: predicted 0.75, observed 0.70, 20 items</title></circle>
<circle class="s0 ring" cx="277.6" cy="495.3" r="6.7" stroke-width="2"><title>raw: predicted 0.85, observed 0.93, 30 items</title></circle>
<circle class="s0 ring" cx="301.7" cy="480.0" r="6.6" stroke-width="2"><title>raw: predicted 0.94, observed 1.00, 28 items</title></circle>
<path class="s1" d="M164.5,595.0 L183.5,623.8 L201.5,531.1 L231.0,523.8 L255.6,507.1 L279.4,480.0 L301.4,480.0" style="fill:none" stroke-width="2" stroke-linejoin="round"/>
<circle class="s1 ring" cx="164.5" cy="595.0" r="5.0" stroke-width="2"><title>floor-calibrated: predicted 0.39, observed 0.50, 4 items</title></circle>
<circle class="s1 ring" cx="183.5" cy="623.8" r="5.4" stroke-width="2"><title>floor-calibrated: predicted 0.47, observed 0.38, 8 items</title></circle>
<circle class="s1 ring" cx="201.5" cy="531.1" r="6.1" stroke-width="2"><title>floor-calibrated: predicted 0.54, observed 0.78, 18 items</title></circle>
<circle class="s1 ring" cx="231.0" cy="523.8" r="6.3" stroke-width="2"><title>floor-calibrated: predicted 0.66, observed 0.81, 21 items</title></circle>
<circle class="s1 ring" cx="255.6" cy="507.1" r="6.1" stroke-width="2"><title>floor-calibrated: predicted 0.76, observed 0.88, 17 items</title></circle>
<circle class="s1 ring" cx="279.4" cy="480.0" r="6.8" stroke-width="2"><title>floor-calibrated: predicted 0.85, observed 1.00, 32 items</title></circle>
<circle class="s1 ring" cx="301.4" cy="480.0" r="6.7" stroke-width="2"><title>floor-calibrated: predicted 0.94, observed 1.00, 30 items</title></circle>
</svg>