<svg xmlns="http://www.w3.org/2000/svg" viewBox="0 0 348 446" width="348" height="446" role="img" aria-label="Restaurant review aspects — calibration (spinf-31b)"><style>
    .bg{fill:#fcfcfb}.t1{fill:#0b0b0b}.t2{fill:#52514e}.grid{stroke:#e4e3df}.axis{stroke:#b9b8b2}.diag{stroke:#9a9993}
    .s0{stroke:#2a78d6;fill:#2a78d6}.s1{stroke:#eb6834;fill:#eb6834}.ring{stroke:#fcfcfb}
    @media (prefers-color-scheme: dark){.bg{fill:#1a1a19}.t1{fill:#ffffff}.t2{fill:#c3c2b7}.grid{stroke:#2e2e2c}
    .axis{stroke:#4a4a47}.diag{stroke:#6d6c67}.s0{stroke:#3987e5;fill:#3987e5}.s1{stroke:#d95926;fill:#d95926}.ring{stroke:#1a1a19}}
    text{font-family:system-ui,-apple-system,Segoe UI,Roboto,sans-serif}</style><rect class="bg" width="348" height="446"/>
<text class="t1" x="24" y="28" font-size="16" font-weight="600">Restaurant review aspects — calibration (spinf-31b)</text>
<circle class="s0 ring" cx="30" cy="50" r="5" stroke-width="2"/><text class="t2" x="40" y="54" font-size="12">raw</text>
<circle class="s1 ring" cx="160" cy="50" r="5" stroke-width="2"/><text class="t2" x="170" y="54" font-size="12">floor-calibrated</text>
<line class="diag" x1="284" y1="50" x2="302" y2="50" stroke-dasharray="4 3" stroke-width="1.5"/><text class="t2" x="308" y="54" font-size="12">perfect calibration</text>
<text class="t1" x="24" y="84" font-size="13" font-weight="600">per-aspect sentiment (3) x food, service, price, ambience</text><text class="t2" x="24" y="100" font-size="11">zero-shot · top-answer confidence · n=1166</text>
<line class="grid" x1="68" y1="340" x2="316" y2="340" stroke-width="1"/><text class="t2" x="62" y="344" font-size="10" text-anchor="end">0</text><text class="t2" x="68" y="354" font-size="10" text-anchor="middle">0</text>
<line class="grid" x1="68" y1="282.5" x2="316" y2="282.5" stroke-width="1"/><text class="t2" x="62" y="286.5" font-size="10" text-anchor="end">0.25</text><text class="t2" x="130.0" y="354" font-size="10" text-anchor="middle">0.25</text>
<line class="grid" x1="68" y1="225.0" x2="316" y2="225.0" stroke-width="1"/><text class="t2" x="62" y="229.0" font-size="10" text-anchor="end">0.5</text><text class="t2" x="192.0" y="354" font-size="10" text-anchor="middle">0.5</text>
<line class="grid" x1="68" y1="167.5" x2="316" y2="167.5" stroke-width="1"/><text class="t2" x="62" y="171.5" font-size="10" text-anchor="end">0.75</text><text class="t2" x="254.0" y="354" font-size="10" text-anchor="middle">0.75</text>
<line class="grid" x1="68" y1="110" x2="316" y2="110" stroke-width="1"/><text class="t2" x="62" y="114" font-size="10" text-anchor="end">1</text><text class="t2" x="316" y="354" font-size="10" text-anchor="middle">1</text>
<line class="axis" x1="68" y1="340" x2="316" y2="340" stroke-width="1"/><line class="diag" x1="68" y1="340" x2="316" y2="110" stroke-dasharray="4 3" stroke-width="1.5"/><text class="t2" x="192.0" y="370" font-size="10" text-anchor="middle">predicted probability</text><text class="t2" x="32" y="225.0" font-size="10" text-anchor="middle" transform="rotate(-90 32 225.0)">observed frequency</text>
<path class="s0" d="M163.1,269.2 L181.4,300.6 L204.4,323.0 L228.9,325.8 L255.0,324.2 L279.9,300.8 L305.8,187.7" style="fill:none" stroke-width="2" stroke-linejoin="round"/>
<circle class="s0 ring" cx="163.1" cy="269.2" r="5.8" stroke-width="2"><title>raw: predicted 0.38, observed 0.31, 13 items</title></circle>
<circle class="s0 ring" cx="181.4" cy="300.6" r="9.0" stroke-width="2"><title>raw: predicted 0.46, observed 0.17, 105 items</title></circle>
<circle class="s0 ring" cx="204.4" cy="323.0" r="9.0" stroke-width="2"><title>raw: predicted 0.55, observed 0.07, 122 items</title></circle>
<circle class="s0 ring" cx="228.9" cy="325.8" r="9.0" stroke-width="2"><title>raw: predicted 0.65, observed 0.06, 113 items</title></circle>
<circle class="s0 ring" cx="255.0" cy="324.2" r="9.0" stroke-width="2"><title>raw: predicted 0.75, observed 0.07, 131 items</title></circle>
<circle class="s0 ring" cx="279.9" cy="300.8" r="9.0" stroke-width="2"><title>raw: predicted 0.85, observed 0.17, 182 items</title></circle>
<circle class="s0 ring" cx="305.8" cy="187.7" r="9.0" stroke-width="2"><title>raw: predicted 0.96, observed 0.66, 500 items</title></circle>
<path class="s1" d="M162.6,217.3 L181.7,227.9 L203.8,219.3 L229.0,215.1 L254.6,213.9 L280.0,189.4 L300.3,141.9" style="fill:none" stroke-width="2" stroke-linejoin="round"/>
<circle class="s1 ring" cx="162.6" cy="217.3" r="6.7" stroke-width="2"><title>floor-calibrated: predicted 0.38, observed 0.53, 30 items</title></circle>
<circle class="s1 ring" cx="181.7" cy="227.9" r="9.0" stroke-width="2"><title>floor-calibrated: predicted 0.46, observed 0.49, 197 items</title></circle>
<circle class="s1 ring" cx="203.8" cy="219.3" r="9.0" stroke-width="2"><title>floor-calibrated: predicted 0.55, observed 0.52, 221 items</title></circle>
<circle class="s1 ring" cx="229.0" cy="215.1" r="9.0" stroke-width="2"><title>floor-calibrated: predicted 0.65, observed 0.54, 175 items</title></circle>
<circle class="s1 ring" cx="254.6" cy="213.9" r="9.0" stroke-width="2"><title>floor-calibrated: predicted 0.75, observed 0.55, 166 items</title></circle>
<circle class="s1 ring" cx="280.0" cy="189.4" r="9.0" stroke-width="2"><title>floor-calibrated: predicted 0.85, observed 0.65, 168 items</title></circle>
<circle class="s1 ring" cx="300.3" cy="141.9" r="9.0" stroke-width="2"><title>floor-calibrated: predicted 0.94, observed 0.86, 209 items</title></circle>
</svg>